inDegrees=no
num_controls=7
num_derivatives=13
num_iterations=142
num_multipliers=7
num_parameters=0
num_slacks=7
num_states=26
objective=0.471611
objective_accelerations=0.002837
objective_balance=0.001984
objective_effort=0.003868
objective_height=0.454674
objective_ligament=0.008248
solver_duration=2059.967163
status=Solve_Succeeded
success=true
DataType=double
version=3
OpenSimVersion=4.5
endheader
time	/jointset/ground_pelvis/pelvis_tilt/value	/jointset/ground_pelvis/pelvis_tx/value	/jointset/ground_pelvis/pelvis_ty/value	/jointset/hip_l/hip_flexion_l/value	/jointset/hip_l/hip_adduction_l/value	/jointset/hip_l/hip_rotation_l/value	/jointset/back/lumbar_extension/value	/jointset/patellofemoral_l/patellar_flexion_l/value	/jointset/knee_l/knee_flexion_l/value	/jointset/knee_l/knee_adduction_l/value	/jointset/knee_l/knee_rotation_l/value	/jointset/ankle_l/ankle_angle_l/value	/jointset/subtalar_l/subtalar_angle_l/value	/jointset/ground_pelvis/pelvis_tilt/speed	/jointset/ground_pelvis/pelvis_tx/speed	/jointset/ground_pelvis/pelvis_ty/speed	/jointset/hip_l/hip_flexion_l/speed	/jointset/hip_l/hip_adduction_l/speed	/jointset/hip_l/hip_rotation_l/speed	/jointset/back/lumbar_extension/speed	/jointset/patellofemoral_l/patellar_flexion_l/speed	/jointset/knee_l/knee_flexion_l/speed	/jointset/knee_l/knee_adduction_l/speed	/jointset/knee_l/knee_rotation_l/speed	/jointset/ankle_l/ankle_angle_l/speed	/jointset/subtalar_l/subtalar_angle_l/speed	/forceset/tau_hip_flexion_l	/forceset/tau_hip_adduction_l	/forceset/tau_hip_rotation_l	/forceset/tau_knee_flexion_l	/forceset/tau_ankle_angle_l	/forceset/tau_subtalar_angle_l	/forceset/tau_lumbar_extension	lambda_cid13_p0	lambda_cid13_p1	lambda_cid13_p2	lambda_cid13_p3	lambda_cid13_p4	lambda_cid13_p5	lambda_cid14_p0	/jointset/ground_pelvis/pelvis_tilt/accel	/jointset/ground_pelvis/pelvis_tx/accel	/jointset/ground_pelvis/pelvis_ty/accel	/jointset/hip_l/hip_flexion_l/accel	/jointset/hip_l/hip_adduction_l/accel	/jointset/hip_l/hip_rotation_l/accel	/jointset/back/lumbar_extension/accel	/jointset/patellofemoral_l/patellar_flexion_l/accel	/jointset/knee_l/knee_flexion_l/accel	/jointset/knee_l/knee_adduction_l/accel	/jointset/knee_l/knee_rotation_l/accel	/jointset/ankle_l/ankle_angle_l/accel	/jointset/subtalar_l/subtalar_angle_l/accel	gamma_cid13_p0	gamma_cid13_p1	gamma_cid13_p2	gamma_cid13_p3	gamma_cid13_p4	gamma_cid13_p5	gamma_cid14_p0
1	-0.08548000649873785	0.08696166527983866	0.8862286706259116	0.28019619101472	-0.3508912286796042	-0.498206891141385	-0.2569139259166307	0.1923859161946823	0.1923859161946048	-0.1744841737655611	-0.1743006957053531	0.00830721358033676	0.01400154433189986	-0.04396964825264109	0.02680327886845444	-0.001117753939350721	0.00786231844870449	0.001438323585692802	-0.008060769227450087	0.0788166553717073	-0.008629839190189998	-0.008629839190184053	-0.0001351521052875688	0.0001684427879761955	0.02668088396225271	0.01682932546736535	-0.05467640414572236	0.04767062228505636	-0.01204691301123019	-0.07836537890687093	-0.006131116534292569	-0.0003255347358487888	0.09380057126859541	-37.57861744034086	-0.6467137289456439	8.183028608438224	3.799482813382657	-550.0660354579533	-57.65393938843496	-42.75465309107577	-0.02072818477837159	0.05647875156258114	0.04308097046148596	-0.3261028922324035	0.1372816706522085	-0.2177539367860473	0.6460778896028543	-0.5364273752790214	-0.5364273752790072	0.01307882818643704	0.005646672012436717	-0.187823090804096	0.05120794818562196	-2.070038086789573e-10	2.959506497749723e-09	-1.211998236867194e-09	1.447646737483127e-09	-1.011593300234344e-09	4.233485478469684e-09	1.329793779859039e-10
1.01	-0.08592091524369157	0.08723250710436287	0.8862196127942198	0.2802589557602125	-0.350869968678949	-0.49829853787473	-0.2560932937999366	0.1922731908621612	0.1922731908621036	-0.174484617610639	-0.1742989996357913	0.008564804480839515	0.01417251214820302	-0.04420834451644522	0.02736539525933109	-0.000693536672891665	0.004686637183887635	0.002815058300086696	-0.01026873100495366	0.08530588540423338	-0.01391583259978665	-0.0139158325997831	4.900674373116907e-05	0.0001712966909115942	0.02483802231304476	0.0173662082641673	-0.05461820033950149	0.04778445065234407	-0.0120299843904899	-0.07818601561741723	-0.006428147018511449	-0.0003726406603602061	0.09366769752217882	-37.66981000418435	-0.6165721335361228	8.185400676670866	3.790600650544998	-550.0324106356188	-57.61790705417787	-42.7544138161082	-0.02487689578517046	0.05612478111895299	0.04213315927649686	-0.3138997874639215	0.1380768382243378	-0.2223401613094647	0.6497631756512144	-0.524776127379976	-0.5247761273803465	0.02147812360610659	-0.002316580641107195	-0.1824087978458126	0.05522364549609382	-4.441109453966925e-10	3.016959052035875e-09	-7.789345780042361e-10	1.572530925131912e-09	-1.51675629801755e-09	4.009951158390919e-09	5.570014076197777e-11
1.02	-0.0863640982610045	0.0875089794324496	0.8862148053461009	0.2802898438843056	-0.3508348998378661	-0.4984122687984655	-0.2552078858597995	0.1921075874348096	0.1921075874348279	-0.1744831411251617	-0.1742972592932337	0.008803988545677396	0.01434890783248829	-0.0444245027244143	0.02792937958095888	-0.0002676772247989556	0.001486994164771384	0.004200091670128281	-0.01247760730553408	0.09177182005971299	-0.01920545815258055	-0.01920545815257902	0.0002489140066132988	0.0001772973908409141	0.02299951682916882	0.01791489906371286	-0.05455999653304902	0.04789827901964047	-0.01201305576957473	-0.07800665232788112	-0.006725177502689073	-0.0004197465848405074	0.09353482377591409	-37.76424630355937	-0.5862380716966978	8.188170945364773	3.790527975942422	-550.0456398343387	-57.58930364704817	-42.75407854794312	-0.01622057361139121	0.05685233771283399	0.04340940678821512	-0.3308952430922825	0.1389414017817405	-0.2179368414013947	0.6414188141935788	-0.5371538039184742	-0.5371538039183865	0.01622851095910171	0.006276031411245714	-0.1869518577376673	0.05356954873435445	-7.12328991130883e-10	2.849884910723731e-09	-1.495486376926756e-10	1.642633462862676e-09	-1.911446261968727e-09	3.629264556737061e-09	-8.328459491911724e-11
1.03	-0.08680941675388641	0.08779110105171574	0.8862142509726348	0.2802886631310205	-0.3507860199708872	-0.4985480780817962	-0.2542578095254195	0.1918890625275397	0.1918890625275283	-0.1744797813410019	-0.1742954495565329	0.009024770560857095	0.01453073619664691	-0.04464421508888802	0.02849525963341812	0.0001557041928903198	-0.001722128733171372	0.005569361501014118	-0.01468343448289301	0.09825224717398641	-0.02450068031759801	-0.02450068031759918	0.0004067087326042619	0.0001840194307387481	0.02115382562286797	0.01844166038075433	-0.05449329747067112	0.04801067340262455	-0.01199352492895658	-0.07777026668686832	-0.007069984748599056	-0.0004710299357977306	0.09338801520176583	-37.87068913534453	-0.5526929090588656	8.191235039671433	3.801989339021774	-550.0018955351245	-57.55196151118267	-42.75363954888171	-0.02559947937662275	0.05650348610134496	0.04163729506120783	-0.3157684808318114	0.1349418748817125	-0.2217834625444965	0.65267471377188	-0.5258799294373067	-0.5258799294377698	0.01310508289833027	-0.002224223966316448	-0.1838369224208778	0.05086195727005528	-9.808644951203437e-10	2.680519680680991e-09	4.818405912050961e-10	1.712177004165705e-09	-2.305008950064476e-09	3.246974360373253e-09	-2.228989785436531e-10
1.04	-0.08725708295271535	0.08807889100092423	0.8862178973705066	0.2802554216152207	-0.350723642985368	-0.4987059211982272	-0.2532426649091529	0.1916175506972659	0.1916175506972734	-0.1744753335836765	-0.1742935915023104	0.009227003829905326	0.01471755868079251	-0.04489404391382451	0.02906304556943527	0.0005724770427355491	-0.004925158338570032	0.006899515377480772	-0.01688437392590609	0.1047854764373702	-0.02980284274837084	-0.02980284274837553	0.0004665086377681341	0.0001869609008241363	0.01928976760278244	0.01891372306103592	-0.05442659840826357	0.04812306778562512	-0.011973994088142	-0.07753388104585461	-0.007414791994490643	-0.0005223132867282139	0.09324120662761416	-37.98039110154865	-0.5189720313036904	8.194722219772514	3.822158675228998	-550.0052260581806	-57.52218723919201	-42.75309883574305	-0.02224386570397393	0.05723351442443747	0.04208769321940502	-0.329676584583457	0.131118210897905	-0.2169592945321966	0.6519792440156754	-0.5385418570695525	-0.5385418570696313	-0.003370453206312664	0.005519917448787438	-0.1906252204945764	0.04262982138239538	-1.139951886418538e-09	2.796833211431663e-09	6.772073881956777e-10	1.822653869832864e-09	-2.734863944748472e-09	3.114840269840831e-09	-2.509686238283536e-10
1.05	-0.08770734423230045	0.08837235312454657	0.8862256821312136	0.2801901685121336	-0.3506481339744605	-0.498885725519253	-0.2521620061279404	0.1912929996902236	0.1912929996902004	-0.1744707091015558	-0.1742917014044382	0.009410509385094286	0.0149088598674977	-0.04515825127449772	0.02962814860432373	0.0009837148999614885	-0.008124754639526182	0.008198655999299432	-0.0190742983069016	0.1113472799211621	-0.035106252743768	-0.03510625274377445	0.0004498986451640048	0.000191517901245238	0.01740900832397526	0.0193410306825347	-0.05434021488778162	0.04825031054199069	-0.011950357773424	-0.07722866626700071	-0.007834458987859706	-0.0005762475460873848	0.09306074801913676	-38.11088505234977	-0.4815136280300042	8.198817800679739	3.864833665263947	-549.9502842911057	-57.4864403417273	-42.75245221638806	-0.02851510993153689	0.05596450347742236	0.04052716464041899	-0.3149951253804406	0.1287674396645203	-0.2196802901351823	0.6584309180149991	-0.5260746276741548	-0.5260746276744077	-0.002079314978551908	-0.00200741560608816	-0.1871516626033922	0.041958158465003	-1.29561902419513e-09	2.922074203457128e-09	8.589484841891622e-10	1.934409901886402e-09	-3.165853074013352e-09	2.990523557615638e-09	-2.755524960399349e-10
1.06	-0.08816024877322907	0.08867142943960904	0.8862375563370266	0.2800929406515384	-0.3505597424669628	-0.4990873633401376	-0.2510156993083995	0.1909154477718268	0.1909154477718219	-0.1744665053279004	-0.174289751937969	0.009575137271289816	0.01510426951560453	-0.04542269618248686	0.03018588385746666	0.001390366063917601	-0.01132010984162846	0.009476014694737333	-0.02125107389797475	0.1179150841031198	-0.04040302501513757	-0.04040302501514689	0.000382366944920111	0.0001988346238733624	0.01551423380398262	0.01973541534128853	-0.05425383136720855	0.04837755329837311	-0.01192672145855147	-0.0769234514881136	-0.008254125981200747	-0.0006301818054135172	0.09288028941069987	-38.24465898926742	-0.443904444119366	8.203373094022151	3.91608264628825	-549.9426846354163	-57.45847051237208	-42.75169570531342	-0.02229137516718367	0.05575995807534886	0.04117035456543907	-0.3288283648126713	0.1267618256217598	-0.2143295365476898	0.6531793836488557	-0.5372143122640378	-0.5372143122643415	-0.01355479473424929	0.006071861890230435	-0.1934282687316445	0.03604522883342786	-1.423352042183814e-09	3.081537582156145e-09	1.000988750512539e-09	2.060941194449906e-09	-3.563685917109418e-09	2.877992797660654e-09	-2.779786213006273e-10
1.07	-0.08861578670364717	0.08897605453680328	0.886253476162591	0.2799637990899672	-0.3504586492020628	-0.4993106872155575	-0.2498037574526005	0.1904849953636424	0.1904849953636364	-0.1744631258437302	-0.1742876994837075	0.009720791903048778	0.0153035251840605	-0.04568391211782898	0.03073871437683989	0.001793012091878717	-0.01450510950070215	0.01074281683249997	-0.02341038204529609	0.1244671920605732	-0.04568253018835466	-0.04568253018837161	0.0002960870633826171	0.0002131582302525609	0.01361899639156455	0.02011713740581083	-0.0540263692443111	0.04837005343310039	-0.01193518330181781	-0.07681310397330061	-0.00837773176525507	-0.0007186617517839288	0.09258070216243318	-38.28123629056703	-0.406098987882805	8.205371034892536	3.894858748578089	-549.8777340971523	-57.43416038700403	-42.75082001216928	-0.0278900942108963	0.054981857688244	0.03972288579000179	-0.3128719645966397	0.1266661896992724	-0.2162336812579916	0.6553122524559996	-0.5225795987317143	-0.522579598732644	-0.005780592230484792	-0.0006619530117376714	-0.1872260369894521	0.03944793987676531	-1.549599202736971e-09	3.242821300571841e-09	1.140917270576868e-09	2.188258405125642e-09	-3.959755127962461e-09	2.766088950060469e-09	-2.792261430001021e-10
